<?xml version="1.0" encoding="utf-8"?>
<!-- Generator: Adobe Illustrator 22.1.0, SVG Export Plug-In . SVG Version: 6.00 Build 0)  -->
<svg version="1.1" id="Layer_1" xmlns="http://www.w3.org/2000/svg" xmlns:xlink="http://www.w3.org/1999/xlink" x="0px" y="0px"
	 viewBox="0 0 5 8" style="enable-background:new 0 0 5 8;" xml:space="preserve">
<style type="text/css">
	.st0{fill:#006837;}
</style>
<path class="st0" d="M4,7.6c-0.1,0-0.1,0-0.2-0.1L0.4,4.2c0,0-0.1-0.1-0.1-0.2c0-0.1,0-0.1,0.1-0.2l3.4-3.4c0,0,0.1-0.1,0.2-0.1
	c0.1,0,0.1,0,0.2,0.1l0.4,0.4c0,0,0.1,0.1,0.1,0.2s0,0.1-0.1,0.2L1.7,4l2.9,2.9c0,0,0.1,0.1,0.1,0.2s0,0.1-0.1,0.2L4.2,7.6
	C4.1,7.6,4.1,7.6,4,7.6z"/>
</svg>
