<?xml version="1.0" encoding="utf-8"?>
<!-- Generator: Adobe Illustrator 22.1.0, SVG Export Plug-In . SVG Version: 6.00 Build 0)  -->
<svg version="1.1" id="Layer_1" xmlns="http://www.w3.org/2000/svg" xmlns:xlink="http://www.w3.org/1999/xlink" x="0px" y="0px"
	 viewBox="0 0 443 128" style="enable-background:new 0 0 443 128;" xml:space="preserve">
<style type="text/css">
	.st0{fill:#006837;}
	.st1{fill:#FFFFFF;}
</style>
<g>
	<g>
		<path class="st0" d="M181,69.1H164v-8.2h26.2v36.2c-0.8,0.4-1.9,0.8-3.4,1.3c-1.5,0.4-3.2,0.8-5.2,1.2c-1.9,0.4-4,0.7-6.2,0.9
			c-2.2,0.2-4.4,0.3-6.6,0.3c-6.4,0-12.1-0.9-17-2.6c-4.9-1.8-9-4.2-12.3-7.4c-3.3-3.2-5.8-7.1-7.6-11.7c-1.7-4.6-2.6-9.7-2.6-15.3
			c0-6.1,0.9-11.7,2.8-16.7c1.9-5,4.6-9.3,8.2-12.8c3.6-3.5,7.9-6.3,12.9-8.2c5.1-1.9,10.6-2.9,16.7-2.9c1.6,0,3.3,0.1,4.9,0.2
			c1.6,0.1,3.2,0.3,4.7,0.6c1.5,0.2,2.9,0.5,4.1,0.9c1.3,0.3,2.3,0.7,3.2,1.1v8.1c-2.2-0.7-4.8-1.4-7.7-1.9s-5.8-0.8-8.7-0.8
			c-4.3,0-8.3,0.6-12.2,1.9c-3.9,1.3-7.3,3.2-10.2,5.8c-2.9,2.6-5.3,5.9-7,9.8c-1.8,3.9-2.6,8.5-2.6,13.8c0,5.2,0.7,9.7,2.2,13.4
			c1.5,3.8,3.5,6.9,6.2,9.3c2.7,2.5,5.9,4.3,9.7,5.5c3.8,1.2,8,1.8,12.7,1.8c2.2,0,4.3-0.1,6.4-0.3c2.1-0.2,4-0.5,5.6-1V69.1z"/>
		<path d="M258.5,71.3c0,4.9-0.7,9.2-2.1,13c-1.4,3.8-3.3,6.9-5.6,9.3c-2.3,2.4-4.9,4.2-7.7,5.4c-2.9,1.2-5.8,1.8-8.7,1.8
			c-2.1,0-3.9-0.3-5.5-0.8c-1.6-0.5-3.1-1.1-4.3-1.9c-1.2-0.7-2.3-1.5-3.1-2.3c-0.8-0.8-1.5-1.5-2-2.2h-0.2l-1.3,5.8h-11
			c0.1-1.6,0.1-3.6,0.2-6c0.1-2.4,0.1-4.6,0.1-6.7V18.4h13.3v22.5c0,1.6,0,3.1,0,4.4c0,1.4,0,2.4-0.1,3.2h0.1
			c0.9-0.6,1.8-1.2,2.8-1.7s2.1-1.1,3.3-1.5c1.2-0.4,2.5-0.8,3.9-1.1c1.4-0.3,2.8-0.4,4.4-0.4c3,0,6,0.6,8.8,1.7
			c2.9,1.1,5.4,2.8,7.6,5c2.2,2.3,4,5.1,5.3,8.7C257.8,62.7,258.5,66.7,258.5,71.3z M244.8,72c0-3.4-0.4-6.3-1.2-8.8
			c-0.8-2.4-1.9-4.3-3.2-5.6c-1.3-1.3-2.7-2.2-4.1-2.6c-1.4-0.4-2.9-0.7-4.3-0.7c-1.9,0-3.9,0.4-5.9,1.2s-3.8,1.8-5.5,3.1v26
			c0.5,0.6,1.2,1.2,1.9,1.9c0.8,0.7,1.6,1.2,2.6,1.8c1,0.5,2,1,3.1,1.3c1.1,0.4,2.3,0.5,3.6,0.5c2.2,0,4.1-0.4,5.7-1.3
			c1.6-0.9,3-2.1,4.1-3.7c1.1-1.6,1.9-3.5,2.5-5.7C244.5,77.2,244.8,74.7,244.8,72z"/>
		<path d="M302.1,93.6h-0.2c-0.7,0.8-1.6,1.6-2.7,2.4c-1,0.8-2.2,1.6-3.6,2.3c-1.3,0.7-2.8,1.3-4.5,1.8c-1.6,0.4-3.4,0.7-5.3,0.7
			c-2.6,0-5-0.4-7.2-1.2c-2.2-0.8-4.2-2-5.8-3.5c-1.6-1.5-2.9-3.3-3.8-5.5c-0.9-2.1-1.4-4.5-1.4-7.2c0-2.9,0.5-5.5,1.6-7.8
			c1.1-2.3,2.5-4.3,4.4-5.9c1.9-1.6,4.2-2.8,6.8-3.7c2.6-0.8,5.6-1.3,8.8-1.3c2.3,0,4.5,0.1,6.5,0.4c2,0.3,3.7,0.7,5.2,1.1v-2.2
			c0-1.3-0.2-2.5-0.6-3.7c-0.4-1.2-1.1-2.2-2.1-3.1c-1-0.9-2.2-1.6-3.7-2.2c-1.5-0.5-3.4-0.8-5.6-0.8c-2.7,0-5.4,0.3-8.1,0.9
			c-2.7,0.6-5.6,1.5-8.7,2.7V47.6c2.7-1.2,5.6-2.1,8.7-2.7c3.1-0.6,6.3-1,9.6-1c4,0,7.4,0.5,10.4,1.5c3,1,5.4,2.3,7.4,4
			c2,1.7,3.5,3.7,4.5,6c1,2.3,1.5,4.8,1.5,7.6v20.4c0,3.6,0,6.7,0.1,9.2c0.1,2.6,0.1,4.9,0.2,6.9h-12L302.1,93.6z M301,76.3
			c-1.3-0.3-2.7-0.6-4.4-0.8c-1.6-0.2-3.3-0.4-5-0.4c-3.2,0-5.8,0.6-7.7,1.9c-1.9,1.3-2.8,3.3-2.8,5.9c0,1.2,0.2,2.3,0.6,3.2
			c0.4,0.9,1,1.7,1.7,2.3c0.7,0.6,1.6,1,2.5,1.3c1,0.3,2,0.4,3.1,0.4c1.3,0,2.6-0.2,3.8-0.5c1.2-0.4,2.3-0.8,3.3-1.3
			c1-0.5,1.9-1.1,2.7-1.8c0.8-0.7,1.5-1.3,2-2V76.3z"/>
		<path d="M341.4,52.7h0.2c0.8-1.1,1.8-2.2,3-3.3c1.2-1.1,2.6-2,4.1-2.9c1.5-0.8,3.2-1.5,5.1-2s3.8-0.8,5.9-0.8c2,0,3.9,0.2,5.7,0.7
			s3.5,1.1,5.1,2.1c1.5,1,2.9,2.2,4.1,3.7c1.2,1.5,2.1,3.3,2.8,5.4c0.4,1.2,0.6,2.4,0.8,3.8c0.1,1.4,0.2,2.9,0.2,4.7v35.2h-13.3
			V66.2c0-1.5-0.1-2.7-0.2-3.7c-0.1-1-0.3-2-0.6-2.7c-0.7-1.7-1.7-2.9-3-3.7c-1.4-0.7-3-1.1-5-1.1c-2.6,0-5,0.6-7.4,1.8
			c-2.4,1.2-4.5,3-6.3,5.3v37.3h-13.3V45.2h11L341.4,52.7z"/>
		<path d="M393.3,18.4h13.3v48.8h0.3l20.6-22h16.4l-23.8,25.5L444,99.4h-16.1l-21.2-25.2h-0.2v25.2h-13.3V18.4z"/>
	</g>
	<g>
		<path class="st0" d="M58.9,127.3c0,0-58.9-38-58.9-95.9C0,15.3,0,0,0,0h117.8c0,0,0,17.5,0,32.6C117.8,91.2,58.9,127.3,58.9,127.3
			z"/>
	</g>
	<g>
		<path class="st1" d="M58.9,121.7l-1-0.7c-0.5-0.3-52.7-34.6-52.7-86V5.6h107.4v30.6c0,52-52.2,84.6-52.7,84.9L58.9,121.7z M9,9.4
			v25.7c0,45.4,42.7,77.1,49.9,82.1c7.2-4.8,49.9-35.1,49.9-81V9.4H9z"/>
	</g>
	<g>
		<polygon class="st1" points="58.9,25.2 63.9,43.2 82.5,42.3 66.9,52.6 73.5,70 58.9,58.4 44.3,70 50.9,52.6 35.3,42.3 53.9,43.2 
					"/>
	</g>
</g>
</svg>
